<svg xmlns="http://www.w3.org/2000/svg" width="414" height="3317" viewBox="0 0 414 3317">
  <path id="path108" d="M0,2889.151V2461.3l12.75-7.889c23.892-14.783,39.494-29.078,51.788-47.448,10.985-16.414,15.5-29.366,15.572-44.691.089-18.483-6.849-32.527-21.611-43.743-8.036-6.106-12.335-8.379-21.622-11.431-8.445-2.776-22.428-9.786-30.529-15.306l-6.3-4.293L.025,1918.8,0,1551.105l6.25,2.909c9.557,4.448,17.118,6.116,30.25,6.674,9.572.407,13.922.109,21.5-1.469,28.125-5.858,53.234-22.685,71.222-47.733a92.075,92.075,0,0,1,9.439-10.553c15.369-14.581,30.543-21.146,77.338-33.456,24.77-6.516,34.431-10,42.644-15.375,10.076-6.594,14.444-12.871,16.464-23.655,2.715-14.5-1.583-29.291-10.9-37.5-15.99-14.091-40.58-21.1-119.213-33.973-16.775-2.746-34.82-6.1-40.1-7.442-39.525-10.078-75.558-29.745-98.649-53.842L0,1289.173V231.207L3.539,228.1c7.628-6.7,20.468-11.047,32.721-11.084,3.167-.011,12.392.927,20.5,2.082,16.681,2.375,32.51,2.179,42.742-.531,21.348-5.653,36.986-20.431,42.931-40.569,3.932-13.321,3.9-34.589-.088-51-6.473-26.669-27.171-44.14-60.016-50.659C64.135,72.731,28.8,74.262,7.858,79.57A57.954,57.954,0,0,1,1.108,81C.318,81,0,69.413,0,40.5V0H414V465.933c0,460.14-.023,465.94-1.939,466.548-4.393,1.394-13.118,11.885-23.612,28.39-21.435,33.712-25.366,37.175-55.853,49.2-22.1,8.719-28.4,11.979-35.224,18.216q-13.994,12.789-11.242,35.1c2.4,19.427,17.075,33.527,47.583,45.713,4.283,1.711,15.888,6.158,25.788,9.883,26.233,9.87,42.721,18.35,51.25,26.356l3.25,3.051V3317H0Z" fill="#75b49c"/>
</svg>
