<svg xmlns="http://www.w3.org/2000/svg" width="414" height="3317" viewBox="0 0 414 3317">
  <path id="path40" d="M.024,2943.39V2569.78l14.249-14.2a475.125,475.125,0,0,1,36.747-32.08l37-29.4c16.81-13.356,41.269-37.27,49.2-48.1,26.648-36.4,33.468-79.961,18.809-120.129-11.63-31.87-35.943-59.2-66.908-75.2-5.829-3.013-17.122-8.049-25.1-11.191-16.91-6.664-23.223-9.734-33.206-16.153-10.538-6.775-20.225-14.947-25.867-21.821l-4.921-6V1639.953l7.749.643c9.931.823,30.539-1.086,45.246-4.191,41.826-8.833,86.805-30.676,128.488-62.4,31.873-24.255,57.137-36.772,87.059-43.132,15.169-3.224,41.15-3.243,55.769-.04,27.7,6.069,55.71,20.091,81.9,41l7.749,6.187V2890.231l-6.012,12.293c-6.154,12.585-19.129,34.735-25.7,43.865-14.163,19.693-28.365,33.57-47.785,46.694A174.384,174.384,0,0,0,315.9,3008.75c-16.328,15.817-25.957,30.337-31.995,48.25-2.728,8.092-3.273,11.358-3.681,22.037-.589,15.439,1.462,24.981,8.27,38.463,8.521,16.877,19.493,28.351,55.547,58.093,35.218,29.052,52.6,48.825,65.51,74.542l4.432,8.825V3317H.024ZM405.987,1388.262q-83.231-71.929-230.979-86.786c-19.438-1.948-24.686-2.837-38.981-6.6-22.329-5.882-41.875-14.962-64.283-29.862-22.3-14.831-44.9-35.218-63.983-57.725L0,1198.132l.262-120.316L.524,957.5l3.938-8.912C16.154,922.127,35.819,898,66.273,872.756c28.795-23.87,34.731-29.024,42.489-36.892,10.495-10.644,16.228-18.308,21.216-28.364,20.549-41.423.375-91.522-50.9-126.414a193.689,193.689,0,0,1-19.217-14.878c-17.9-16.887-39.481-49.272-53.989-81.015L.524,573.5.246,453C.093,386.725.19,331.583.461,330.461c.7-2.873,10.521-12.682,17.328-17.3,19.97-13.548,44.182-20.335,82.725-23.189,8.249-.611,19.583-1.74,25.186-2.509,61.508-8.439,106.695-46.04,117.375-97.67,2.839-13.724,2.287-31.7-1.41-45.964a119.607,119.607,0,0,0-49.232-69.1C168.7,58.932,139.42,48.774,86.639,38.029c-42-8.551-57.726-12.684-75.366-19.811L.024,13.673V0H413.986V344c0,189.2-.381,344-.846,344s-5.527,3.1-11.249,6.885Q370.7,715.526,354.966,747.5c-9.12,18.545-12.956,35.595-12.967,57.644-.011,21.732-3.723,45.541-9.714,62.316a167.206,167.206,0,0,1-18.061,34.375c-8.836,12.318-15.556,19.4-35.725,37.673-28.015,25.376-35.5,33.431-42.337,45.553-9.38,16.633-12.378,39.7-8.7,66.939,6.464,47.9,28.192,79.075,78.537,112.682,5.774,3.855,20.623,12.983,33,20.284s24.748,14.89,27.5,16.863c12.152,8.719,30.193,28.359,41.5,45.179l6.008,8.936-.257,69.4-.257,69.4Z" fill="#fff"/>
</svg>
