<svg xmlns="http://www.w3.org/2000/svg" width="414.434" height="3317" viewBox="0 0 414.434 3317">
  <path id="path74" d="M.016,2910.1v-406.9l10.249-6.94c5.637-3.817,18.8-12.356,29.248-18.976,24.643-15.612,33.892-21.979,45.5-31.324,19.408-15.626,30.684-30.883,35.812-48.454,11.2-38.372-2.32-80.189-34.314-106.14-11.067-8.976-17.774-12.5-34-17.847-17.844-5.884-30.763-12.9-46.214-25.1L.082,2243.5.048,1916.143C.021,1654.653-1,1588.557,0,1588.946c.687.268,6.79,2.644,12.014,4.878,16.769,7.171,27.373,9.51,43.5,9.6,29.814.158,41.753-6.457,91.994-50.976,19.794-17.539,40-31.629,55.5-38.693,19.139-8.726,33.241-11.78,57.5-12.451,24.621-.681,36.791.743,79.077,9.257,27.036,5.443,35.237,6.719,45.914,7.145,12.723.507,14.644.269,26.248-3.252l2.25-.683V2947.644l-5.112,7.428a352.752,352.752,0,0,1-35.859,43.379c-15.36,16.1-21.137,24.319-27.506,39.141-5.546,12.908-7.66,22.392-8.244,36.989-.618,15.446,1.05,25.729,6.071,37.424,5.188,12.084,10.113,18.437,28.673,36.986,19.226,19.214,27.387,29.773,36.437,47.138l5.539,10.629V3317H.015ZM407.488,1412.939c-16.62-16.965-48.984-37.232-76.495-47.9-21.184-8.217-52.749-17.565-71.136-21.067-26.268-5-35.219-6.163-69.354-8.981-93.987-7.76-142.118-25.495-183.745-67.7L0,1260.433l.258-177.467L.516,905.5,7.143,892c9.89-20.148,18.1-31.14,40.22-53.863,17.154-17.62,19.637-20.605,23.83-28.653C77.485,797.407,80.043,788,80.7,774.5c1.083-22.234-5.668-45.37-19.317-66.2C59.294,705.109,51.922,696.65,45,689.5c-17.72-18.305-28.594-31.647-39.856-48.9L.016,632.743V270.1l3.25-2.476c6.519-4.966,17.341-14.105,32.465-14.83,6.8-.293,6.18-.966,26.947,0s44.426-.855,63.59-6.371c51.441-14.807,78.5-51.39,72.814-98.425-2.877-23.779-11.5-42.393-26.239-56.619-19.788-19.1-44.319-28.261-105.457-39.365-32.532-5.908-47.7-9.137-59.121-12.588L.016,36.936V0H413.987l0,376.25,0,376.25-7.521,3.861a51.392,51.392,0,0,0-22.836,22.771c-5.578,11.438-6.027,16.862-3.519,42.55,2.521,25.826,3.022,62.4,1.023,74.818-4.169,25.917-11.728,42.4-25.088,54.724a66.862,66.862,0,0,1-12.176,8.943c-2.954,1.467-11.445,5.626-18.87,9.241-29.212,14.226-53.412,36.617-64.948,60.091-5.1,10.375-7.047,18.308-7.047,28.684,0,28.016,17.038,48.045,63,74.053,6.325,3.579,25.935,13.914,43.58,22.965,27.482,14.1,41.991,22.6,52.168,30.55l2.254,1.762-.254,115.774-.254,115.774-6-6.124Z" transform="translate(0.437)" fill="#a6d6c4"/>
</svg>
