<svg xmlns="http://www.w3.org/2000/svg" width="364.591" height="1416.735" viewBox="0 0 364.591 1416.735">
  <g id="Group_2" data-name="Group 2" transform="translate(0 -260)">
    <g id="Forest" transform="translate(-26.073 764.46)">
      <path id="Path_3" data-name="Path 3" d="M144.574.54l13.5,23.383h-27Z" transform="translate(-5.036 0)" fill="#74b49b"/>
      <path id="Path_6" data-name="Path 6" d="M112.574,54.54l13.5,23.383h-27Z" transform="translate(5 -15.498)" fill="#74b49b"/>
      <path id="Path_20" data-name="Path 20" d="M112.574,54.54l13.5,23.383h-27Z" transform="translate(47 -15.498)" fill="#74b49b"/>
    </g>
    <g id="trees" transform="translate(1 39)">
      <path id="Tree_3" data-name="Tree 3" d="M14.419,22.968a11.57,11.57,0,1,0-4.821,0v9.893h4.821Zm0,0v-9.39a2.41,2.41,0,1,0-4.821,0v9.39a11.678,11.678,0,0,0,4.821,0Z" transform="translate(340.013 839.92)" fill="#74b49b" fill-rule="evenodd"/>
      <path id="Tree_3-2" data-name="Tree 3" d="M14.419,22.968a11.57,11.57,0,1,0-4.821,0v9.893h4.821Zm0,0v-9.39a2.41,2.41,0,1,0-4.821,0v9.39a11.678,11.678,0,0,0,4.821,0Z" transform="translate(316.562 873.058)" fill="#74b49b" fill-rule="evenodd"/>
    </g>
    <g id="trees-2" data-name="trees" transform="translate(-278 734)">
      <path id="Tree_3-3" data-name="Tree 3" d="M10.689,16.861a8.483,8.483,0,1,0-3.535,0v7.253h3.535Zm0,0V9.977a1.767,1.767,0,1,0-3.535,0v6.885a8.562,8.562,0,0,0,3.535,0Z" transform="translate(294.306 878.62)" fill="#74b49b" fill-rule="evenodd"/>
      <path id="Tree_3-4" data-name="Tree 3" d="M10.689,16.861A8.484,8.484,0,0,0,8.921.08,9.119,9.119,0,0,0,4.438,1.29V15.709a7.513,7.513,0,0,0,2.716,1.153v7.253h3.535Zm0,0V9.977a1.767,1.767,0,1,0-3.535,0v6.885a8.562,8.562,0,0,0,3.535,0Z" transform="translate(273.562 867.058)" fill="#74b49b" fill-rule="evenodd"/>
    </g>
    <g id="Group_4" data-name="Group 4" transform="translate(285.903 1549.7)">
      <path id="Tree_3-5" data-name="Tree 3" d="M12.7,20.154a10.147,10.147,0,1,0-4.228,0v8.677H12.7Zm0,0V11.919a2.114,2.114,0,1,0-4.228,0v8.236a10.242,10.242,0,0,0,4.228,0Z" transform="translate(-0.438 -0.08)" fill="#74b49b" fill-rule="evenodd"/>
      <path id="Tree_3-6" data-name="Tree 3" d="M12.7,20.154a10.147,10.147,0,1,0-4.228,0v8.677H12.7Zm0,0V11.919a2.114,2.114,0,1,0-4.228,0v8.236a10.242,10.242,0,0,0,4.228,0Z" transform="translate(24.682 14.274)" fill="#74b49b" fill-rule="evenodd"/>
    </g>
    <g id="Group_5" data-name="Group 5" transform="translate(272.744 1583.194)">
      <path id="Tree_3-7" data-name="Tree 3" d="M12.7,20.154a10.147,10.147,0,1,0-4.228,0v8.677H12.7Zm0,0V11.919a2.114,2.114,0,1,0-4.228,0v8.236a10.242,10.242,0,0,0,4.228,0Z" transform="translate(-0.438 -0.08)" fill="#74b49b" fill-rule="evenodd"/>
      <path id="Tree_3-8" data-name="Tree 3" d="M12.7,20.154a10.147,10.147,0,1,0-4.228,0v8.677H12.7Zm0,0V11.919a2.114,2.114,0,1,0-4.228,0v8.236a10.242,10.242,0,0,0,4.228,0Z" transform="translate(24.682 14.274)" fill="#74b49b" fill-rule="evenodd"/>
    </g>
    <g id="Forest-2" data-name="Forest" transform="translate(58.927 259.46)">
      <path id="Path_3-2" data-name="Path 3" d="M144.574.54l13.5,23.383h-27Z" transform="translate(-5.036 0)" fill="#74b49b"/>
      <path id="Path_6-2" data-name="Path 6" d="M112.574,54.54l13.5,23.383h-27Z" transform="translate(0 -27.498)" fill="#74b49b"/>
    </g>
    <g id="trees-3" data-name="trees" transform="translate(-278 774)">
      <path id="Tree_3-9" data-name="Tree 3" d="M10.689,16.861a8.483,8.483,0,1,0-3.535,0v7.253h3.535Zm0,0V9.977a1.767,1.767,0,1,0-3.535,0v6.885a8.562,8.562,0,0,0,3.535,0Z" transform="translate(294.306 878.62)" fill="#74b49b" fill-rule="evenodd"/>
      <path id="Tree_3-10" data-name="Tree 3" d="M10.689,16.861A8.484,8.484,0,0,0,8.921.08,9.119,9.119,0,0,0,4.438,1.29V15.709a7.513,7.513,0,0,0,2.716,1.153v7.253h3.535Zm0,0V9.977a1.767,1.767,0,1,0-3.535,0v6.885a8.562,8.562,0,0,0,3.535,0Z" transform="translate(273.562 867.058)" fill="#74b49b" fill-rule="evenodd"/>
    </g>
    <g id="trees-4" data-name="trees" transform="translate(-40 18)">
      <path id="Tree_3-11" data-name="Tree 3" d="M14.419,22.968a11.57,11.57,0,1,0-4.821,0v9.893h4.821Zm0,0v-9.39a2.41,2.41,0,1,0-4.821,0v9.39a11.678,11.678,0,0,0,4.821,0Z" transform="translate(340.013 839.92)" fill="#74b49b" fill-rule="evenodd"/>
      <path id="Tree_3-12" data-name="Tree 3" d="M14.419,22.968a11.57,11.57,0,1,0-4.821,0v9.893h4.821Zm0,0v-9.39a2.41,2.41,0,1,0-4.821,0v9.39a11.678,11.678,0,0,0,4.821,0Z" transform="translate(316.562 873.058)" fill="#74b49b" fill-rule="evenodd"/>
    </g>
  </g>
</svg>
